# xmcd CD database file
#
# Track frame offsets:
#	150
#	21293
#	37169
#	60132
#	72866
#	90351
#	105995
#	124980
#	131817
#	143749
#	149291
#	169692
#	183866
#	198771
#	212123
#	224666
#	243648
#	257353
#	275983
#
# Disc length: 3838 seconds
#
# Revision: 0
# Processed by: cddbd v1.5.2PL0 Copyright (c) Steve Scherf et al.
# Submitted via: CDex 1.51
#
DISCID=1e0efc13
DTITLE=Barry Franks - Thylacine Dreaming
DYEAR=1997
DGENRE=New Age
TTITLE0=Last Crossing of the Land Bridge
TTITLE1=Tides of the Tiger
TTITLE2=Moonbirders
TTITLE3=White Sails
TTITLE4=Running the Blackline
TTITLE5=The Dream of Winnaleah
TTITLE6=Passage to Flinders
TTITLE7=Escape from Sarah Island
TTITLE8=Morning on Lake Dove
TTITLE9=I am, said the Tiger
TTITLE10=Dancing with Thylacines
TTITLE11=Mannalargenna
TTITLE12=The Breaking
TTITLE13=Truganini's Final Wish
TTITLE14=Spirits of Ossa
TTITLE15=Freeing the Rainbow People
TTITLE16=Marsupial Carnivore
TTITLE17=Pedder, Lake of Sighs
TTITLE18=In the Quiet Land
EXTD=YEAR: 1997
EXTT0=
EXTT1=
EXTT2=
EXTT3=
EXTT4=
EXTT5=
EXTT6=
EXTT7=
EXTT8=
EXTT9=
EXTT10=
EXTT11=
EXTT12=
EXTT13=
EXTT14=
EXTT15=
EXTT16=
EXTT17=
EXTT18=
PLAYORDER=
